<?xml version="1.0" encoding="UTF-8" standalone="no"?>
<svg
   xmlns:dc="http://purl.org/dc/elements/1.1/"
   xmlns:cc="http://creativecommons.org/ns#"
   xmlns:rdf="http://www.w3.org/1999/02/22-rdf-syntax-ns#"
   xmlns:svg="http://www.w3.org/2000/svg"
   xmlns="http://www.w3.org/2000/svg"
   xmlns:sodipodi="http://sodipodi.sourceforge.net/DTD/sodipodi-0.dtd"
   xmlns:inkscape="http://www.inkscape.org/namespaces/inkscape"
   width="800"
   height="120"
   viewBox="0 0 211.66666 31.75"
   version="1.1"
   id="svg8"
   inkscape:version="1.0 (4035a4fb49, 2020-05-01)"
   sodipodi:docname="rounded_rect_red.svg">
  <defs
     id="defs2" />
  <sodipodi:namedview
     id="base"
     pagecolor="#000000"
     bordercolor="#666666"
     borderopacity="1.0"
     inkscape:pageopacity="0"
     inkscape:pageshadow="2"
     inkscape:zoom="1.979899"
     inkscape:cx="603.27624"
     inkscape:cy="175.32174"
     inkscape:document-units="mm"
     inkscape:current-layer="layer1"
     inkscape:document-rotation="0"
     showgrid="false"
     units="px"
     width="100px"
     inkscape:window-width="1920"
     inkscape:window-height="1017"
     inkscape:window-x="-8"
     inkscape:window-y="-8"
     inkscape:window-maximized="1"
     showguides="true" />
  <metadata
     id="metadata5">
    <rdf:RDF>
      <cc:Work
         rdf:about="">
        <dc:format>image/svg+xml</dc:format>
        <dc:type
           rdf:resource="http://purl.org/dc/dcmitype/StillImage" />
        <dc:title />
      </cc:Work>
    </rdf:RDF>
  </metadata>
  <g
     inkscape:label="Layer 1"
     inkscape:groupmode="layer"
     id="layer1">
    <rect
       style="fill:#b2003e;stroke:#ffffff;stroke-width:1.52283;stroke-miterlimit:4;stroke-dasharray:none;stroke-opacity:1;fill-opacity:1"
       id="rect839"
       width="210.14383"
       height="30.227165"
       x="0.76141894"
       y="0.76141894"
       ry="3.7583625" />
    <g
       style="shape-rendering:crispEdges"
       id="g841"
       transform="matrix(0.40041794,0,0,0.40041794,2.5135417,3.261835)">
      <g
         style="opacity:1"
         id="g835"
         transform="matrix(4,0,0,4,0,1.5)">
        <path
           id="path837"
           d="m 1,0 h 3 m 8,0 h 3 M 0,1 h 5 m 6,0 h 5 M 0,2 h 6 m 4,0 h 6 M 0,3 h 7 m 2,0 h 7 M 1,4 H 15 M 2,5 H 14 M 3,6 H 13 M 4,7 h 8 M 4,8 h 8 M 3,9 H 13 M 2,10 H 14 M 1,11 H 15 M 0,12 h 7 m 2,0 h 7 M 0,13 h 6 m 4,0 h 6 M 0,14 h 5 m 6,0 h 5 M 1,15 h 3 m 8,0 h 3"
           style="color:#000000;font-style:normal;font-variant:normal;font-weight:normal;font-stretch:normal;font-size:medium;line-height:normal;font-family:sans-serif;font-variant-ligatures:normal;font-variant-position:normal;font-variant-caps:normal;font-variant-numeric:normal;font-variant-alternates:normal;font-variant-east-asian:normal;font-feature-settings:normal;font-variation-settings:normal;text-indent:0;text-align:start;text-decoration:none;text-decoration-line:none;text-decoration-style:solid;text-decoration-color:#000000;letter-spacing:normal;word-spacing:normal;text-transform:none;writing-mode:lr-tb;direction:ltr;text-orientation:mixed;dominant-baseline:auto;baseline-shift:baseline;text-anchor:start;white-space:normal;shape-padding:0;shape-margin:0;inline-size:0;clip-rule:nonzero;display:inline;overflow:visible;visibility:visible;isolation:auto;mix-blend-mode:normal;color-interpolation:sRGB;color-interpolation-filters:linearRGB;solid-color:#000000;solid-opacity:1;vector-effect:none;fill:#000000;fill-opacity:1;fill-rule:nonzero;stroke:none;stroke-width:1;stroke-linecap:butt;stroke-linejoin:miter;stroke-miterlimit:4;stroke-dasharray:none;stroke-dashoffset:0;stroke-opacity:1;color-rendering:auto;image-rendering:auto;shape-rendering:auto;text-rendering:auto;enable-background:accumulate;stop-color:#000000;stop-opacity:1" />
        <path
           d="m 1,-0.5 c 0,0.33333333 0,0.66666667 0,1 -0.33333333,0 -0.66666667,0 -1,0 0,1 0,2 0,3 0.33333333,0 0.66666667,0 1,0 0,0.3333333 0,0.6666667 0,1 0.3333333,0 0.6666667,0 1,0 0,0.3333333 0,0.6666667 0,1 0.3333333,0 0.6666667,0 1,0 0,0.3333333 0,0.6666667 0,1 0.3333333,0 0.6666667,0 1,0 0,0.6666667 0,1.3333333 0,2 -0.3333333,0 -0.6666667,0 -1,0 0,0.3333333 0,0.6666667 0,1 -0.3333333,0 -0.6666667,0 -1,0 0,0.333333 0,0.666667 0,1 -0.3333333,0 -0.6666667,0 -1,0 0,0.333333 0,0.666667 0,1 -0.33333333,0 -0.66666667,0 -1,0 0,1 0,2 0,3 0.33333333,0 0.66666667,0 1,0 0,0.333333 0,0.666667 0,1 1,0 2,0 3,0 0,-0.333333 0,-0.666667 0,-1 0.3333333,0 0.6666667,0 1,0 0,-0.333333 0,-0.666667 0,-1 0.3333333,0 0.6666667,0 1,0 0,-0.333333 0,-0.666667 0,-1 0.3333333,0 0.6666667,0 1,0 0,-0.333333 0,-0.666667 0,-1 0.6666667,0 1.3333333,0 2,0 0,0.333333 0,0.666667 0,1 0.3333333,0 0.6666667,0 1,0 0,0.333333 0,0.666667 0,1 0.333333,0 0.666667,0 1,0 0,0.333333 0,0.666667 0,1 0.333333,0 0.666667,0 1,0 0,0.333333 0,0.666667 0,1 1,0 2,0 3,0 0,-0.333333 0,-0.666667 0,-1 0.333333,0 0.666667,0 1,0 0,-1 0,-2 0,-3 -0.333333,0 -0.666667,0 -1,0 0,-0.333333 0,-0.666667 0,-1 -0.333333,0 -0.666667,0 -1,0 0,-0.333333 0,-0.666667 0,-1 -0.333333,0 -0.666667,0 -1,0 0,-0.3333333 0,-0.6666667 0,-1 -0.333333,0 -0.666667,0 -1,0 0,-0.6666667 0,-1.3333333 0,-2 0.333333,0 0.666667,0 1,0 0,-0.3333333 0,-0.6666667 0,-1 0.333333,0 0.666667,0 1,0 0,-0.3333333 0,-0.6666667 0,-1 0.333333,0 0.666667,0 1,0 0,-0.3333333 0,-0.6666667 0,-1 0.333333,0 0.666667,0 1,0 0,-1 0,-2 0,-3 -0.333333,0 -0.666667,0 -1,0 0,-0.33333333 0,-0.66666667 0,-1 -1,0 -2,0 -3,0 0,0.33333333 0,0.66666667 0,1 -0.333333,0 -0.666667,0 -1,0 0,0.3333333 0,0.6666667 0,1 -0.333333,0 -0.666667,0 -1,0 0,0.3333333 0,0.6666667 0,1 -0.3333333,0 -0.6666667,0 -1,0 0,0.3333333 0,0.6666667 0,1 -0.6666667,0 -1.3333333,0 -2,0 0,-0.3333333 0,-0.6666667 0,-1 -0.3333333,0 -0.6666667,0 -1,0 0,-0.3333333 0,-0.6666667 0,-1 -0.3333333,0 -0.6666667,0 -1,0 0,-0.3333333 0,-0.6666667 0,-1 -0.3333333,0 -0.6666667,0 -1,0 0,-0.33333333 0,-0.66666667 0,-1 -1,0 -2,0 -3,0 z"
           style="color:#000000;font-style:normal;font-variant:normal;font-weight:normal;font-stretch:normal;font-size:medium;line-height:normal;font-family:sans-serif;font-variant-ligatures:normal;font-variant-position:normal;font-variant-caps:normal;font-variant-numeric:normal;font-variant-alternates:normal;font-variant-east-asian:normal;font-feature-settings:normal;font-variation-settings:normal;text-indent:0;text-align:start;text-decoration:none;text-decoration-line:none;text-decoration-style:solid;text-decoration-color:#000000;letter-spacing:normal;word-spacing:normal;text-transform:none;writing-mode:lr-tb;direction:ltr;text-orientation:mixed;dominant-baseline:auto;baseline-shift:baseline;text-anchor:start;white-space:normal;shape-padding:0;shape-margin:0;inline-size:0;clip-rule:nonzero;display:inline;overflow:visible;visibility:visible;isolation:auto;mix-blend-mode:normal;color-interpolation:sRGB;color-interpolation-filters:linearRGB;solid-color:#000000;solid-opacity:1;vector-effect:none;fill:#80002d;fill-opacity:1;fill-rule:nonzero;stroke:none;stroke-width:1;stroke-linecap:butt;stroke-linejoin:miter;stroke-miterlimit:4;stroke-dasharray:none;stroke-dashoffset:0;stroke-opacity:1;color-rendering:auto;image-rendering:auto;shape-rendering:auto;text-rendering:auto;enable-background:accumulate;stop-color:#000000;stop-opacity:1"
           id="path839" />
      </g>
    </g>
    <path
       id="path839-3"
       style="color:#000000;font-style:normal;font-variant:normal;font-weight:normal;font-stretch:normal;font-size:medium;line-height:normal;font-family:sans-serif;font-variant-ligatures:normal;font-variant-position:normal;font-variant-caps:normal;font-variant-numeric:normal;font-variant-alternates:normal;font-variant-east-asian:normal;font-feature-settings:normal;font-variation-settings:normal;text-indent:0;text-align:start;text-decoration:none;text-decoration-line:none;text-decoration-style:solid;text-decoration-color:#000000;letter-spacing:normal;word-spacing:normal;text-transform:none;writing-mode:lr-tb;direction:ltr;text-orientation:mixed;dominant-baseline:auto;baseline-shift:baseline;text-anchor:start;white-space:normal;shape-padding:0;shape-margin:0;inline-size:0;clip-rule:nonzero;display:inline;overflow:visible;visibility:visible;opacity:1;isolation:auto;mix-blend-mode:normal;color-interpolation:sRGB;color-interpolation-filters:linearRGB;solid-color:#000000;solid-opacity:1;vector-effect:none;fill:#80002d;fill-opacity:1;fill-rule:nonzero;stroke:none;stroke-width:1.60167;stroke-linecap:butt;stroke-linejoin:miter;stroke-miterlimit:4;stroke-dasharray:none;stroke-dashoffset:0;stroke-opacity:1;color-rendering:auto;image-rendering:auto;shape-rendering:auto;text-rendering:auto;enable-background:accumulate;stop-color:#000000;stop-opacity:1"
       d="m 185.12805,3.0614937 c 0,0.5338913 0,1.0677827 0,1.6016737 -0.53389,0 -1.06778,0 -1.60167,0 0,1.6016745 0,3.2033485 0,4.8050225 0.53389,0 1.06778,0 1.60167,0 0,0.5338911 0,1.0677831 0,1.6016751 0.53389,0 1.06778,0 1.60167,0 0,0.533891 0,1.067783 0,1.601674 0.53389,0 1.06778,0 1.60167,0 0,0.533892 0,1.067783 0,1.601675 0.53389,0 1.06778,0 1.60167,0 0,1.067783 0,2.135566 0,3.203349 -0.53389,0 -1.06778,0 -1.60167,0 0,0.533891 0,1.067782 0,1.601674 -0.53389,0 -1.06778,0 -1.60167,0 0,0.533891 0,1.067783 0,1.601674 -0.53389,0 -1.06778,0 -1.60167,0 0,0.533891 0,1.067783 0,1.601674 -0.53389,0 -1.06778,0 -1.60167,0 0,1.601674 0,3.203348 0,4.805022 0.53389,0 1.06778,0 1.60167,0 0,0.533891 0,1.067783 0,1.601674 1.60167,0 3.20334,0 4.80501,0 0,-0.533891 0,-1.067783 0,-1.601674 0.53389,0 1.06779,0 1.60168,0 0,-0.533891 0,-1.067783 0,-1.601674 0.53389,0 1.06778,0 1.60167,0 0,-0.533891 0,-1.067783 0,-1.601674 0.53389,0 1.06778,0 1.60166,0 0,-0.533891 0,-1.067783 0,-1.601674 1.06779,0 2.13557,0 3.20335,0 0,0.533891 0,1.067783 0,1.601674 0.53389,0 1.06779,0 1.60168,0 0,0.533891 0,1.067783 0,1.601674 0.53389,0 1.06778,0 1.60167,0 0,0.533891 0,1.067783 0,1.601674 0.53389,0 1.06778,0 1.60167,0 0,0.533891 0,1.067783 0,1.601674 1.60167,0 3.20334,0 4.80502,0 0,-0.533891 0,-1.067783 0,-1.601674 0.53389,0 1.06778,0 1.60167,0 0,-1.601674 0,-3.203348 0,-4.805022 -0.53389,0 -1.06778,0 -1.60167,0 0,-0.533891 0,-1.067783 0,-1.601674 -0.53389,0 -1.06779,0 -1.60168,0 0,-0.533891 0,-1.067783 0,-1.601674 -0.53389,0 -1.06778,0 -1.60167,0 0,-0.533892 0,-1.067783 0,-1.601674 -0.53389,0 -1.06778,0 -1.60167,0 0,-1.067783 0,-2.135566 0,-3.203349 0.53389,0 1.06778,0 1.60167,0 0,-0.533892 0,-1.067783 0,-1.601675 0.53389,0 1.06778,0 1.60167,0 0,-0.533891 0,-1.067783 0,-1.601674 0.53389,0 1.06779,0 1.60168,0 0,-0.533892 0,-1.067784 0,-1.6016751 0.53389,0 1.06778,0 1.60167,0 0,-1.601674 0,-3.203348 0,-4.8050225 -0.53389,0 -1.06778,0 -1.60167,0 0,-0.533891 0,-1.0677824 0,-1.6016737 -1.60168,0 -3.20335,0 -4.80502,0 0,0.5338913 0,1.0677827 0,1.6016737 -0.53389,0 -1.06778,0 -1.60167,0 0,0.5338919 0,1.0677829 0,1.6016745 -0.53389,0 -1.06778,0 -1.60167,0 0,0.533891 0,1.067782 0,1.601674 -0.53389,0 -1.06779,0 -1.60168,0 0,0.533891 0,1.0677821 0,1.601674 -1.06778,0 -2.13556,0 -3.20335,0 0,-0.5338919 0,-1.067783 0,-1.601674 -0.53388,0 -1.06777,0 -1.60166,0 0,-0.533892 0,-1.067783 0,-1.601674 -0.53389,0 -1.06778,0 -1.60167,0 0,-0.5338916 0,-1.0677826 0,-1.6016745 -0.53389,0 -1.06779,0 -1.60168,0 0,-0.533891 0,-1.0677824 0,-1.6016737 -1.60167,0 -3.20334,0 -4.80501,0 z" />
  </g>
</svg>
