<?xml version="1.0" encoding="UTF-8" standalone="no"?>
<svg
   xmlns:dc="http://purl.org/dc/elements/1.1/"
   xmlns:cc="http://creativecommons.org/ns#"
   xmlns:rdf="http://www.w3.org/1999/02/22-rdf-syntax-ns#"
   xmlns:svg="http://www.w3.org/2000/svg"
   xmlns="http://www.w3.org/2000/svg"
   xmlns:sodipodi="http://sodipodi.sourceforge.net/DTD/sodipodi-0.dtd"
   xmlns:inkscape="http://www.inkscape.org/namespaces/inkscape"
   sodipodi:docname="rounded_rect_green.svg"
   inkscape:version="1.0 (4035a4fb49, 2020-05-01)"
   id="svg8"
   version="1.1"
   viewBox="0 0 211.66666 31.75"
   height="120"
   width="800">
  <defs
     id="defs2" />
  <sodipodi:namedview
     inkscape:window-maximized="1"
     inkscape:window-y="-8"
     inkscape:window-x="-8"
     inkscape:window-height="1017"
     inkscape:window-width="1920"
     width="100px"
     units="px"
     showgrid="false"
     inkscape:document-rotation="0"
     inkscape:current-layer="layer1"
     inkscape:document-units="mm"
     inkscape:cy="148.24273"
     inkscape:cx="105.78937"
     inkscape:zoom="0.70000001"
     inkscape:pageshadow="2"
     inkscape:pageopacity="0"
     borderopacity="1.0"
     bordercolor="#666666"
     pagecolor="#000000"
     id="base" />
  <metadata
     id="metadata5">
    <rdf:RDF>
      <cc:Work
         rdf:about="">
        <dc:format>image/svg+xml</dc:format>
        <dc:type
           rdf:resource="http://purl.org/dc/dcmitype/StillImage" />
        <dc:title />
      </cc:Work>
    </rdf:RDF>
  </metadata>
  <g
     id="layer1"
     inkscape:groupmode="layer"
     inkscape:label="Layer 1">
    <rect
       ry="3.7583625"
       y="0.76141894"
       x="0.76141894"
       height="30.227165"
       width="210.14383"
       id="rect839"
       style="fill:#00b351;stroke:#ffffff;stroke-width:1.52283;stroke-miterlimit:4;stroke-dasharray:none;stroke-opacity:1;fill-opacity:1" />
    <g
       transform="matrix(0.26458333,0,0,0.26458333,44.18543,11.71084)"
       id="g841"
       style="shape-rendering:crispEdges">
      <g
         transform="matrix(4,0,0,4,0,1.5)"
         style="opacity:1;fill:#ffffff"
         id="g835">
        <path
           id="path837"
           d="m 12,0 h 3 m -4,1 h 5 m -5,1 h 5 m -6,1 h 6 M 9,4 h 6 M 9,5 h 6 M 8,6 h 6 M 1,7 h 3 m 3,0 h 6 M 0,8 h 5 m 2,0 h 6 M 0,9 H 12 M 0,10 H 11 M 1,11 h 10 m -9,1 h 8 m -7,1 h 6 m -5,1 h 5 m -4,1 h 3"
           style="color:#000000;font-style:normal;font-variant:normal;font-weight:normal;font-stretch:normal;font-size:medium;line-height:normal;font-family:sans-serif;font-variant-ligatures:normal;font-variant-position:normal;font-variant-caps:normal;font-variant-numeric:normal;font-variant-alternates:normal;font-variant-east-asian:normal;font-feature-settings:normal;font-variation-settings:normal;text-indent:0;text-align:start;text-decoration:none;text-decoration-line:none;text-decoration-style:solid;text-decoration-color:#000000;letter-spacing:normal;word-spacing:normal;text-transform:none;writing-mode:lr-tb;direction:ltr;text-orientation:mixed;dominant-baseline:auto;baseline-shift:baseline;text-anchor:start;white-space:normal;shape-padding:0;shape-margin:0;inline-size:0;clip-rule:nonzero;display:inline;overflow:visible;visibility:visible;isolation:auto;mix-blend-mode:normal;color-interpolation:sRGB;color-interpolation-filters:linearRGB;solid-color:#000000;solid-opacity:1;vector-effect:none;fill:#ffffff;fill-opacity:1;fill-rule:nonzero;stroke:none;stroke-width:1;stroke-linecap:butt;stroke-linejoin:miter;stroke-miterlimit:4;stroke-dasharray:none;stroke-dashoffset:0;stroke-opacity:1;color-rendering:auto;image-rendering:auto;shape-rendering:auto;text-rendering:auto;enable-background:accumulate;stop-color:#000000;stop-opacity:1" />
        <path
           d="m -21.214325,-8.5474857 c 0,0.504464 0,1.008927 0,1.5133908 -0.504463,0 -1.008928,0 -1.513391,0 0,1.0089272 0,2.0178542 0,3.0267815 -0.504463,0 -1.008928,0 -1.513391,0 0,0.5044634 0,1.008927 0,1.5133906 -0.504463,0 -1.008927,0 -1.51339,0 0,1.0089273 0,2.01785417 0,3.02678127 -0.504464,0 -1.008927,0 -1.513391,0 0,0.50446363 0,1.00892723 0,1.51339123 -0.504463,0 -1.008927,0 -1.51339,0 0,1.008927 0,2.017854 0,3.026781 -1.008928,0 -2.017855,0 -3.026782,0 0,-0.504464 0,-1.008927 0,-1.513391 -0.504463,0 -1.008927,0 -1.51339,0 0,-0.504463 0,-1.008927 0,-1.51339 -1.513391,0 -3.026782,0 -4.540173,0 0,0.504463 0,1.008927 0,1.51339 -0.504463,0 -1.008927,0 -1.51339,0 0,1.513391 0,3.026781 0,4.5401723 0.504463,0 1.008927,0 1.51339,0 0,0.504463 0,1.008928 0,1.513391 0.504464,0 1.008928,0 1.513391,0 0,0.504463 0,1.008927 0,1.51339 0.504464,0 1.008927,0 1.513391,0 0,0.504463 0,1.008928 0,1.513391 0.504463,0 1.008927,0 1.513391,0 0,0.504463 0,1.008928 0,1.513391 0.504463,0 1.008927,0 1.51339,0 0,0.504463 0,1.008927 0,1.51339 1.513391,0 3.026782,0 4.540172,0 0,-0.504463 0,-1.008927 0,-1.51339 0.504464,0 1.008927,0 1.513391,0 0,-1.008928 0,-2.017854 0,-3.026782 0.504463,0 1.008927,0 1.51339,0 0,-0.504463 0,-1.008927 0,-1.51339 0.504463,0 1.008928,0 1.513391,0 0,-1.008928 0,-2.017854 0,-3.0267823 0.504463,0 1.008928,0 1.513391,0 0,-0.504463 0,-1.008927 0,-1.51339 0.504463,0 1.008927,0 1.51339,0 0,-1.008927 0,-2.017854 0,-3.026781 0.504463,0 1.008928,0 1.513391,0 0,-0.504464 0,-1.0089276 0,-1.51339123 0.504463,0 1.008928,0 1.513391,0 0,-1.0089271 0,-2.01785397 0,-3.02678127 0.504463,0 1.008927,0 1.51339,0 0,-1.5133906 0,-3.0267815 0,-4.5401721 -0.504463,0 -1.008927,0 -1.51339,0 0,-0.5044638 0,-1.0089268 0,-1.5133908 -1.513391,0 -3.026782,0 -4.540172,0 z"
           style="color:#000000;font-style:normal;font-variant:normal;font-weight:normal;font-stretch:normal;font-size:medium;line-height:normal;font-family:sans-serif;font-variant-ligatures:normal;font-variant-position:normal;font-variant-caps:normal;font-variant-numeric:normal;font-variant-alternates:normal;font-variant-east-asian:normal;font-feature-settings:normal;font-variation-settings:normal;text-indent:0;text-align:start;text-decoration:none;text-decoration-line:none;text-decoration-style:solid;text-decoration-color:#000000;letter-spacing:normal;word-spacing:normal;text-transform:none;writing-mode:lr-tb;direction:ltr;text-orientation:mixed;dominant-baseline:auto;baseline-shift:baseline;text-anchor:start;white-space:normal;shape-padding:0;shape-margin:0;inline-size:0;clip-rule:nonzero;display:inline;overflow:visible;visibility:visible;isolation:auto;mix-blend-mode:normal;color-interpolation:sRGB;color-interpolation-filters:linearRGB;solid-color:#000000;solid-opacity:1;vector-effect:none;fill:#00803a;fill-opacity:1;fill-rule:nonzero;stroke:none;stroke-width:1.51339;stroke-linecap:butt;stroke-linejoin:miter;stroke-miterlimit:4;stroke-dasharray:none;stroke-dashoffset:0;stroke-opacity:1;color-rendering:auto;image-rendering:auto;shape-rendering:auto;text-rendering:auto;enable-background:accumulate;stop-color:#000000;stop-opacity:1"
           id="path839" />
      </g>
    </g>
    <path
       id="path839-7"
       style="color:#000000;font-style:normal;font-variant:normal;font-weight:normal;font-stretch:normal;font-size:medium;line-height:normal;font-family:sans-serif;font-variant-ligatures:normal;font-variant-position:normal;font-variant-caps:normal;font-variant-numeric:normal;font-variant-alternates:normal;font-variant-east-asian:normal;font-feature-settings:normal;font-variation-settings:normal;text-indent:0;text-align:start;text-decoration:none;text-decoration-line:none;text-decoration-style:solid;text-decoration-color:#000000;letter-spacing:normal;word-spacing:normal;text-transform:none;writing-mode:lr-tb;direction:ltr;text-orientation:mixed;dominant-baseline:auto;baseline-shift:baseline;text-anchor:start;white-space:normal;shape-padding:0;shape-margin:0;inline-size:0;clip-rule:nonzero;display:inline;overflow:visible;visibility:visible;opacity:1;isolation:auto;mix-blend-mode:normal;color-interpolation:sRGB;color-interpolation-filters:linearRGB;solid-color:#000000;solid-opacity:1;vector-effect:none;fill:#00803a;fill-opacity:1;fill-rule:nonzero;stroke:none;stroke-width:1.60167;stroke-linecap:butt;stroke-linejoin:miter;stroke-miterlimit:4;stroke-dasharray:none;stroke-dashoffset:0;stroke-opacity:1;color-rendering:auto;image-rendering:auto;shape-rendering:auto;text-rendering:auto;enable-background:accumulate;stop-color:#000000;stop-opacity:1"
       d="m 202.74644,3.0617583 c 0,0.533891 0,1.067781 0,1.6016719 -0.53389,0 -1.06778,0 -1.60167,0 0,1.0677813 0,2.1355624 0,3.2033437 -0.53389,0 -1.06779,0 -1.60168,0 0,0.5338903 0,1.0677811 0,1.6016716 -0.53389,0 -1.06778,0 -1.60167,0 0,1.0677815 0,2.1355625 0,3.2033435 -0.53389,0 -1.06778,0 -1.60167,0 0,0.53389 0,1.067781 0,1.601672 -0.53389,0 -1.06778,0 -1.60167,0 0,1.067781 0,2.135562 0,3.203343 -1.06778,0 -2.13556,0 -3.20334,0 0,-0.533891 0,-1.067781 0,-1.601672 -0.53389,0 -1.06779,0 -1.60168,0 0,-0.53389 0,-1.067781 0,-1.601671 -1.60167,0 -3.20334,0 -4.80501,0 0,0.53389 0,1.067781 0,1.601671 -0.53389,0 -1.06778,0 -1.60167,0 0,1.601672 0,3.203343 0,4.805016 0.53389,0 1.06778,0 1.60167,0 0,0.53389 0,1.067782 0,1.601672 0.53389,0 1.06778,0 1.60167,0 0,0.53389 0,1.067781 0,1.601671 0.53389,0 1.06778,0 1.60167,0 0,0.53389 0,1.067782 0,1.601672 0.53389,0 1.06778,0 1.60167,0 0,0.53389 0,1.067782 0,1.601672 0.53389,0 1.06779,0 1.60168,0 0,0.53389 0,1.067781 0,1.601671 1.60167,0 3.20334,0 4.80501,0 0,-0.53389 0,-1.067781 0,-1.601671 0.53389,0 1.06778,0 1.60167,0 0,-1.067782 0,-2.135562 0,-3.203344 0.53389,0 1.06778,0 1.60167,0 0,-0.53389 0,-1.067781 0,-1.601671 0.53389,0 1.06779,0 1.60168,0 0,-1.067782 0,-2.135562 0,-3.203345 0.53389,0 1.06778,0 1.60167,0 0,-0.53389 0,-1.067781 0,-1.601671 0.53389,0 1.06778,0 1.60167,0 0,-1.067781 0,-2.135562 0,-3.203343 0.53389,0 1.06778,0 1.60167,0 0,-0.533891 0,-1.067782 0,-1.601672 0.53389,0 1.06778,0 1.60167,0 0,-1.067781 0,-2.135562 0,-3.2033435 0.53389,0 1.06778,0 1.60167,0 0,-1.6016716 0,-3.2033437 0,-4.8050153 -0.53389,0 -1.06778,0 -1.60167,0 0,-0.5338909 0,-1.0677809 0,-1.6016719 -1.60167,0 -3.20334,0 -4.80501,0 z" />
  </g>
</svg>
