<?xml version="1.0" encoding="UTF-8" standalone="no"?>
<svg
   xmlns:dc="http://purl.org/dc/elements/1.1/"
   xmlns:cc="http://creativecommons.org/ns#"
   xmlns:rdf="http://www.w3.org/1999/02/22-rdf-syntax-ns#"
   xmlns:svg="http://www.w3.org/2000/svg"
   xmlns="http://www.w3.org/2000/svg"
   xmlns:sodipodi="http://sodipodi.sourceforge.net/DTD/sodipodi-0.dtd"
   xmlns:inkscape="http://www.inkscape.org/namespaces/inkscape"
   viewBox="0 -0.5 64 64"
   shape-rendering="crispEdges"
   version="1.1"
   id="svg6"
   sodipodi:docname="check_green.svg"
   width="64"
   height="64"
   inkscape:version="1.0 (4035a4fb49, 2020-05-01)">
  <defs
     id="defs10" />
  <sodipodi:namedview
     inkscape:document-rotation="0"
     pagecolor="#ffffff"
     bordercolor="#666666"
     borderopacity="1"
     objecttolerance="10"
     gridtolerance="10"
     guidetolerance="10"
     inkscape:pageopacity="0"
     inkscape:pageshadow="2"
     inkscape:window-width="1920"
     inkscape:window-height="1017"
     id="namedview8"
     showgrid="false"
     fit-margin-top="0"
     fit-margin-left="0"
     fit-margin-right="0"
     fit-margin-bottom="0"
     inkscape:zoom="6.640625"
     inkscape:cx="-13.631998"
     inkscape:cy="17.481912"
     inkscape:window-x="1778"
     inkscape:window-y="826"
     inkscape:window-maximized="1"
     inkscape:current-layer="svg6" />
  <metadata
     id="metadata2">Made with Pixels to Svg https://codepen.io/shshaw/pen/XbxvNj<rdf:RDF>
  <cc:Work
     rdf:about="">
    <dc:format>image/svg+xml</dc:format>
    <dc:type
       rdf:resource="http://purl.org/dc/dcmitype/StillImage" />
    <dc:title />
  </cc:Work>
</rdf:RDF>
</metadata>
  <g
     id="g835"
     style="opacity:1;fill:#ffffff"
     transform="matrix(4,0,0,4,0,1.5)">
    <path
       style="color:#000000;font-style:normal;font-variant:normal;font-weight:normal;font-stretch:normal;font-size:medium;line-height:normal;font-family:sans-serif;font-variant-ligatures:normal;font-variant-position:normal;font-variant-caps:normal;font-variant-numeric:normal;font-variant-alternates:normal;font-variant-east-asian:normal;font-feature-settings:normal;font-variation-settings:normal;text-indent:0;text-align:start;text-decoration:none;text-decoration-line:none;text-decoration-style:solid;text-decoration-color:#000000;letter-spacing:normal;word-spacing:normal;text-transform:none;writing-mode:lr-tb;direction:ltr;text-orientation:mixed;dominant-baseline:auto;baseline-shift:baseline;text-anchor:start;white-space:normal;shape-padding:0;shape-margin:0;inline-size:0;clip-rule:nonzero;display:inline;overflow:visible;visibility:visible;isolation:auto;mix-blend-mode:normal;color-interpolation:sRGB;color-interpolation-filters:linearRGB;solid-color:#000000;solid-opacity:1;vector-effect:none;fill:#ffffff;fill-opacity:1;fill-rule:nonzero;stroke:none;stroke-width:1;stroke-linecap:butt;stroke-linejoin:miter;stroke-miterlimit:4;stroke-dasharray:none;stroke-dashoffset:0;stroke-opacity:1;color-rendering:auto;image-rendering:auto;shape-rendering:auto;text-rendering:auto;enable-background:accumulate;stop-color:#000000;stop-opacity:1"
       d="m 12,0 h 3 m -4,1 h 5 m -5,1 h 5 m -6,1 h 6 M 9,4 h 6 M 9,5 h 6 M 8,6 h 6 M 1,7 h 3 m 3,0 h 6 M 0,8 h 5 m 2,0 h 6 M 0,9 H 12 M 0,10 H 11 M 1,11 h 10 m -9,1 h 8 m -7,1 h 6 m -5,1 h 5 m -4,1 h 3"
       id="path837" />
    <path
       id="path839"
       style="color:#000000;font-style:normal;font-variant:normal;font-weight:normal;font-stretch:normal;font-size:medium;line-height:normal;font-family:sans-serif;font-variant-ligatures:normal;font-variant-position:normal;font-variant-caps:normal;font-variant-numeric:normal;font-variant-alternates:normal;font-variant-east-asian:normal;font-feature-settings:normal;font-variation-settings:normal;text-indent:0;text-align:start;text-decoration:none;text-decoration-line:none;text-decoration-style:solid;text-decoration-color:#000000;letter-spacing:normal;word-spacing:normal;text-transform:none;writing-mode:lr-tb;direction:ltr;text-orientation:mixed;dominant-baseline:auto;baseline-shift:baseline;text-anchor:start;white-space:normal;shape-padding:0;shape-margin:0;inline-size:0;clip-rule:nonzero;display:inline;overflow:visible;visibility:visible;isolation:auto;mix-blend-mode:normal;color-interpolation:sRGB;color-interpolation-filters:linearRGB;solid-color:#000000;solid-opacity:1;vector-effect:none;fill:#00ff00;fill-opacity:1;fill-rule:nonzero;stroke:none;stroke-width:1;stroke-linecap:butt;stroke-linejoin:miter;stroke-miterlimit:4;stroke-dasharray:none;stroke-dashoffset:0;stroke-opacity:1;color-rendering:auto;image-rendering:auto;shape-rendering:auto;text-rendering:auto;enable-background:accumulate;stop-color:#000000;stop-opacity:1"
       d="m 12,-0.5 c 0,0.33333333 0,0.66666667 0,1 -0.333333,0 -0.666667,0 -1,0 0,0.6666667 0,1.3333333 0,2 -0.333333,0 -0.666667,0 -1,0 0,0.3333333 0,0.6666667 0,1 -0.3333333,0 -0.6666667,0 -1,0 0,0.6666667 0,1.3333333 0,2 -0.3333333,0 -0.6666667,0 -1,0 0,0.3333333 0,0.6666667 0,1 -0.3333333,0 -0.6666667,0 -1,0 0,0.6666667 0,1.3333333 0,2 -0.6666667,0 -1.3333333,0 -2,0 0,-0.3333333 0,-0.6666667 0,-1 -0.3333333,0 -0.6666667,0 -1,0 0,-0.3333333 0,-0.6666667 0,-1 -1,0 -2,0 -3,0 0,0.3333333 0,0.6666667 0,1 -0.33333333,0 -0.66666667,0 -1,0 0,1 0,2 0,3 0.33333333,0 0.66666667,0 1,0 0,0.333333 0,0.666667 0,1 0.3333333,0 0.6666667,0 1,0 0,0.333333 0,0.666667 0,1 0.3333333,0 0.6666667,0 1,0 0,0.333333 0,0.666667 0,1 0.3333333,0 0.6666667,0 1,0 0,0.333333 0,0.666667 0,1 0.3333333,0 0.6666667,0 1,0 0,0.333333 0,0.666667 0,1 1,0 2,0 3,0 0,-0.333333 0,-0.666667 0,-1 0.3333333,0 0.6666667,0 1,0 0,-0.666667 0,-1.333333 0,-2 0.3333333,0 0.6666667,0 1,0 0,-0.333333 0,-0.666667 0,-1 0.333333,0 0.666667,0 1,0 0,-0.666667 0,-1.333333 0,-2 0.333333,0 0.666667,0 1,0 0,-0.3333333 0,-0.6666667 0,-1 0.333333,0 0.666667,0 1,0 0,-0.6666667 0,-1.3333333 0,-2 0.333333,0 0.666667,0 1,0 0,-0.3333333 0,-0.6666667 0,-1 0.333333,0 0.666667,0 1,0 0,-0.6666667 0,-1.3333333 0,-2 0.333333,0 0.666667,0 1,0 0,-1 0,-2 0,-3 -0.333333,0 -0.666667,0 -1,0 0,-0.33333333 0,-0.66666667 0,-1 -1,0 -2,0 -3,0 z" />
  </g>
</svg>
