<?xml version="1.0" encoding="UTF-8" standalone="no"?>
<svg
   xmlns:dc="http://purl.org/dc/elements/1.1/"
   xmlns:cc="http://creativecommons.org/ns#"
   xmlns:rdf="http://www.w3.org/1999/02/22-rdf-syntax-ns#"
   xmlns:svg="http://www.w3.org/2000/svg"
   xmlns="http://www.w3.org/2000/svg"
   xmlns:sodipodi="http://sodipodi.sourceforge.net/DTD/sodipodi-0.dtd"
   xmlns:inkscape="http://www.inkscape.org/namespaces/inkscape"
   width="80.000008"
   height="80.000008"
   viewBox="0 0 21.166668 21.166668"
   version="1.1"
   id="svg6353"
   inkscape:version="1.0 (4035a4fb49, 2020-05-01)"
   sodipodi:docname="pixel_scissor.svg">
  <defs
     id="defs6347" />
  <sodipodi:namedview
     id="base"
     pagecolor="#ffffff"
     bordercolor="#666666"
     borderopacity="1.0"
     inkscape:pageopacity="0.0"
     inkscape:pageshadow="2"
     inkscape:zoom="1.4"
     inkscape:cx="246.44985"
     inkscape:cy="307.46124"
     inkscape:document-units="mm"
     inkscape:current-layer="layer1"
     inkscape:document-rotation="0"
     showgrid="false"
     fit-margin-top="0"
     fit-margin-left="0"
     fit-margin-right="0"
     fit-margin-bottom="0"
     units="px"
     inkscape:window-width="1920"
     inkscape:window-height="1017"
     inkscape:window-x="-8"
     inkscape:window-y="-8"
     inkscape:window-maximized="1" />
  <metadata
     id="metadata6350">
    <rdf:RDF>
      <cc:Work
         rdf:about="">
        <dc:format>image/svg+xml</dc:format>
        <dc:type
           rdf:resource="http://purl.org/dc/dcmitype/StillImage" />
        <dc:title />
      </cc:Work>
    </rdf:RDF>
  </metadata>
  <g
     inkscape:label="Layer 1"
     inkscape:groupmode="layer"
     id="layer1">
    <path
       d="m 21.166667,0 c -0.881945,0 -1.76389,0 -2.645835,0 0,0.88192569 0,1.7638764 0,2.6458271 0.881945,0 1.76389,0 2.645835,0 0,-0.8819507 0,-1.76390141 0,-2.6458271 z m -2.645835,2.6458271 c -0.881943,0 -1.763888,0 -2.645833,0 0,0.8819507 0,1.7639014 0,2.6458271 0.881945,0 1.76389,0 2.645833,0 0,-0.8819257 0,-1.7638764 0,-2.6458271 z m -2.645833,2.6458271 c -0.881945,0 -1.76389,0 -2.645832,0 0,0.8819507 0,1.7639014 0,2.6458521 0.881942,0 1.763887,0 2.645832,0 0,-0.8819507 0,-1.7639014 0,-2.6458521 z m -2.645832,2.6458521 c -1.76389,0 -3.5277774,0 -5.2916673,0 0,1.7638763 0,3.5277777 0,5.2916537 1.7638899,0 3.5277773,0 5.2916673,0 0,-1.763876 0,-3.5277774 0,-5.2916537 z m 0,5.2916537 c 0,0.881951 0,1.763902 0,2.645853 0.881942,0 1.763887,0 2.645832,0 0,-0.881951 0,-1.763902 0,-2.645853 -0.881945,0 -1.76389,0 -2.645832,0 z m 2.645832,2.645853 c 0,0.881925 0,1.763876 0,2.645827 0.881945,0 1.76389,0 2.645833,0 0,-0.881951 0,-1.763902 0,-2.645827 -0.881943,0 -1.763888,0 -2.645833,0 z m 2.645833,2.645827 c 0,0.88195 0,1.763901 0,2.645827 0.881945,0 1.76389,0 2.645835,0 0,-0.881926 0,-1.763877 0,-2.645827 -0.881945,0 -1.76389,0 -2.645835,0 z M 7.9374997,13.22916 c -1.7638899,0 -3.5277774,0 -5.2916673,0 0,0.881951 0,1.763902 0,2.645853 0.881945,0 1.7638899,0 2.6458349,0 0,0.881925 0,1.763876 0,2.645827 0.8819425,0 1.7638874,0 2.6458324,0 0,-1.763902 0,-3.527778 0,-5.29168 z m -2.6458324,5.29168 c -0.881945,0 -1.7638899,0 -2.6458349,0 0,0.88195 0,1.763901 0,2.645827 0.881945,0 1.7638899,0 2.6458349,0 0,-0.881926 0,-1.763877 0,-2.645827 z m -2.6458349,0 c 0,-0.881951 0,-1.763902 0,-2.645827 -0.8819425,0 -1.76388743,0 -2.6458324,0 0,0.881925 0,1.763876 0,2.645827 0.88194497,0 1.7638899,0 2.6458324,0 z M 7.9374997,7.9375063 c 0,-1.7639014 0,-3.5277778 0,-5.2916792 -0.881945,0 -1.7638899,0 -2.6458324,0 0,0.8819507 0,1.7639014 0,2.6458271 -0.881945,0 -1.7638899,0 -2.6458349,0 0,0.8819507 0,1.7639014 0,2.6458521 1.7638899,0 3.5277774,0 5.2916673,0 z M 2.6458324,5.2916542 c 0,-0.8819257 0,-1.7638764 0,-2.6458271 -0.8819425,0 -1.76388743,0 -2.6458324,0 0,0.8819507 0,1.7639014 0,2.6458271 0.88194497,0 1.7638899,0 2.6458324,0 z m 0,-2.6458271 c 0.881945,0 1.7638899,0 2.6458349,0 0,-0.8819507 0,-1.76390141 0,-2.6458271 -0.881945,0 -1.7638899,0 -2.6458349,0 0,0.88192569 0,1.7638764 0,2.6458271 z"
       style="color:#000000;font-style:normal;font-variant:normal;font-weight:normal;font-stretch:normal;font-size:medium;line-height:normal;font-family:sans-serif;font-variant-ligatures:normal;font-variant-position:normal;font-variant-caps:normal;font-variant-numeric:normal;font-variant-alternates:normal;font-variant-east-asian:normal;font-feature-settings:normal;font-variation-settings:normal;text-indent:0;text-align:start;text-decoration:none;text-decoration-line:none;text-decoration-style:solid;text-decoration-color:#000000;letter-spacing:normal;word-spacing:normal;text-transform:none;writing-mode:lr-tb;direction:ltr;text-orientation:mixed;dominant-baseline:auto;baseline-shift:baseline;text-anchor:start;white-space:normal;shape-padding:0;shape-margin:0;inline-size:0;clip-rule:nonzero;display:inline;overflow:visible;visibility:visible;opacity:1;isolation:auto;mix-blend-mode:normal;color-interpolation:sRGB;color-interpolation-filters:linearRGB;solid-color:#000000;solid-opacity:1;vector-effect:none;fill-opacity:1;fill-rule:nonzero;stroke:none;stroke-width:0.661457;stroke-linecap:butt;stroke-linejoin:miter;stroke-miterlimit:4;stroke-dasharray:none;stroke-dashoffset:0;stroke-opacity:1;color-rendering:auto;image-rendering:auto;shape-rendering:auto;text-rendering:auto;enable-background:accumulate;stop-color:#000000;stop-opacity:1;fill:#ffffff"
       id="path3750" />
  </g>
</svg>
